<svg width="44" height="44" viewBox="0 0 44 44" fill="none" xmlns="http://www.w3.org/2000/svg">
<circle cx="22" cy="22" r="21.45" fill="#E67EF6"/>
<circle cx="22" cy="22" r="21.45" fill="white" fill-opacity="0.7"/>
<circle cx="22" cy="22" r="21.45" fill="url(#paint0_linear_1539_69944)" fill-opacity="0.6" style="mix-blend-mode:overlay"/>
<circle cx="22" cy="22" r="21.45" stroke="#171717" stroke-width="1.1"/>
<rect x="12.25" y="22" width="4.33333" height="6.5" fill="#A3E635"/>
<rect x="27.4141" y="22" width="4.33333" height="6.5" fill="#A3E635"/>
<g clip-path="url(#clip0_1539_69944)">
<path d="M29.5045 14.5514C28.5325 13.5697 27.3765 12.7893 26.1025 12.255C24.8285 11.7207 23.4617 11.4429 22.0802 11.4375H22C19.1987 11.4375 16.512 12.5503 14.5312 14.5312C12.5503 16.512 11.4375 19.1987 11.4375 22V27.6875C11.4375 28.334 11.6943 28.954 12.1514 29.4111C12.6085 29.8682 13.2285 30.125 13.875 30.125H15.5C16.1465 30.125 16.7665 29.8682 17.2236 29.4111C17.6807 28.954 17.9375 28.334 17.9375 27.6875V23.625C17.9375 22.9785 17.6807 22.3585 17.2236 21.9014C16.7665 21.4443 16.1465 21.1875 15.5 21.1875H13.0991C13.2558 19.4934 13.8921 17.879 14.9335 16.5336C15.9749 15.1882 17.3783 14.1675 18.979 13.5912C20.5798 13.0149 22.3117 12.9068 23.9717 13.2795C25.6317 13.6523 27.1511 14.4906 28.3517 15.696C29.8192 17.171 30.7218 19.1147 30.902 21.1875H28.5C27.8535 21.1875 27.2335 21.4443 26.7764 21.9014C26.3193 22.3585 26.0625 22.9785 26.0625 23.625V27.6875C26.0625 28.334 26.3193 28.954 26.7764 29.4111C27.2335 29.8682 27.8535 30.125 28.5 30.125H30.9375C30.9375 30.7715 30.6807 31.3915 30.2236 31.8486C29.7665 32.3057 29.1465 32.5625 28.5 32.5625H22.8125C22.597 32.5625 22.3903 32.6481 22.238 32.8005C22.0856 32.9528 22 33.1595 22 33.375C22 33.5905 22.0856 33.7971 22.238 33.9495C22.3903 34.1019 22.597 34.1875 22.8125 34.1875H28.5C29.5774 34.1875 30.6108 33.7595 31.3726 32.9976C32.1345 32.2358 32.5625 31.2024 32.5625 30.125V22C32.5678 20.6183 32.3004 19.2492 31.7756 17.971C31.2509 16.6928 30.4791 15.5308 29.5045 14.5514ZM15.5 22.8125C15.7155 22.8125 15.9222 22.8981 16.0745 23.0505C16.2269 23.2028 16.3125 23.4095 16.3125 23.625V27.6875C16.3125 27.903 16.2269 28.1096 16.0745 28.262C15.9222 28.4144 15.7155 28.5 15.5 28.5H13.875C13.6595 28.5 13.4528 28.4144 13.3005 28.262C13.1481 28.1096 13.0625 27.903 13.0625 27.6875V22.8125H15.5ZM28.5 28.5C28.2845 28.5 28.0778 28.4144 27.9255 28.262C27.7731 28.1096 27.6875 27.903 27.6875 27.6875V23.625C27.6875 23.4095 27.7731 23.2028 27.9255 23.0505C28.0778 22.8981 28.2845 22.8125 28.5 22.8125H30.9375V28.5H28.5Z" fill="#171717"/>
</g>
<defs>
<linearGradient id="paint0_linear_1539_69944" x1="22" y1="0" x2="22" y2="44" gradientUnits="userSpaceOnUse">
<stop stop-opacity="0"/>
<stop offset="1"/>
</linearGradient>
<clipPath id="clip0_1539_69944">
<rect width="26" height="26" fill="white" transform="translate(9 9)"/>
</clipPath>
</defs>
</svg>
