<svg width="1920" height="130" viewBox="0 0 1920 130" fill="none" xmlns="http://www.w3.org/2000/svg">
<g clip-path="url(#clip0_1222_20932)">
<path d="M1921.43 45.7212V19.5947C1912.42 19.5947 1906.54 22.338 1901.05 25.6038C1900.92 25.7345 1900.66 25.8651 1900.53 25.8651C1899.48 26.3876 1898.57 27.0408 1897.65 27.5633C1897.52 27.6939 1897.26 27.8246 1897.13 27.8246C1891.25 31.3516 1885.11 34.6175 1875.45 34.6175C1854.55 34.6175 1850.37 19.5947 1829.46 19.5947C1824.89 19.5947 1821.1 20.3785 1817.84 21.4236C1816.53 21.8155 1815.23 22.338 1814.05 22.9912C1813.53 23.2524 1813 23.5137 1812.48 23.775C1811.05 24.5588 1809.61 25.3426 1808.3 26.1263C1807.91 26.3876 1807.52 26.6489 1807 26.9101C1806.73 27.0408 1806.34 27.302 1806.08 27.4327C1799.94 31.0904 1793.67 34.7481 1783.48 34.7481C1762.58 34.7481 1758.4 19.7254 1737.5 19.7254C1716.6 19.7254 1712.42 34.7481 1691.52 34.7481C1670.62 34.7481 1666.44 19.7254 1645.66 19.7254C1645.66 19.7254 1645.66 19.7254 1645.53 19.7254C1645.53 19.7254 1645.53 19.7254 1645.4 19.7254C1624.63 19.856 1620.45 34.7481 1599.55 34.7481C1578.65 34.7481 1574.47 19.7254 1553.57 19.7254C1532.67 19.7254 1528.49 34.7481 1507.46 34.7481C1486.55 34.7481 1482.37 19.7254 1461.47 19.7254C1440.57 19.7254 1436.39 34.7481 1415.49 34.7481C1397.72 34.7481 1391.98 23.775 1377.74 20.6398C1376.3 20.2479 1374.73 19.9866 1373.03 19.856V19.5947C1372.38 19.5947 1371.86 19.5947 1371.21 19.5947C1370.68 19.5947 1370.03 19.5947 1369.38 19.5947V19.7254C1368.85 19.7254 1368.33 19.856 1367.68 19.856C1367.03 19.856 1366.63 19.9866 1366.11 20.1173C1364.02 20.5092 1362.19 21.0317 1360.49 21.6848C1360.1 21.8155 1359.58 21.9461 1359.19 22.2074C1348.61 26.5182 1342.34 34.6175 1326.92 34.6175C1306.02 34.6175 1301.84 19.5947 1280.94 19.5947C1260.04 19.5947 1255.86 34.6175 1234.83 34.6175C1213.92 34.6175 1209.74 19.5947 1188.84 19.5947C1167.94 19.5947 1163.76 34.6175 1142.86 34.6175C1121.96 34.6175 1117.78 19.5947 1097.01 19.5947C1097.01 19.5947 1097.01 19.5947 1096.88 19.5947C1096.88 19.5947 1096.88 19.5947 1096.75 19.5947C1075.98 19.7254 1071.8 34.6175 1050.9 34.6175C1029.99 34.6175 1025.81 19.5947 1004.91 19.5947C984.011 19.5947 979.831 34.6175 958.799 34.6175C937.898 34.6175 933.718 19.5947 912.817 19.5947C891.915 19.5947 887.735 34.6175 866.834 34.6175C846.586 34.6175 842.014 20.5092 822.68 19.5947C822.419 19.5947 822.027 19.5947 821.766 19.5947C821.504 19.5947 821.113 19.5947 820.851 19.5947C801.518 20.5092 796.946 34.6175 776.698 34.6175C755.796 34.6175 751.616 19.5947 730.715 19.5947C709.814 19.5947 705.633 34.6175 684.602 34.6175C663.701 34.6175 659.52 19.5947 638.619 19.5947C617.718 19.5947 613.538 34.6175 592.636 34.6175C571.735 34.6175 567.555 19.5947 546.784 19.5947C546.784 19.5947 546.784 19.5947 546.654 19.5947C546.523 19.5947 546.654 19.5947 546.523 19.5947C525.753 19.7254 521.572 34.6175 500.671 34.6175C478.986 34.6175 474.806 19.5947 453.905 19.5947C433.004 19.5947 428.823 34.6175 407.922 34.6175C387.021 34.6175 382.841 19.5947 361.939 19.5947C341.038 19.5947 336.858 34.6175 315.957 34.6175C296.885 34.6175 291.79 22.2074 275.2 19.856V19.5947C274.285 19.5947 273.371 19.5947 272.587 19.7254C271.672 19.7254 270.889 19.5947 269.974 19.5947V19.9866C253.515 22.2074 248.289 34.7481 229.217 34.7481C208.316 34.7481 204.135 19.7254 183.234 19.7254C162.333 19.7254 158.153 34.7481 137.121 34.7481C116.22 34.7481 112.04 19.7254 91.1384 19.7254C70.2372 19.7254 66.057 34.7481 45.1558 34.7481C33.3989 34.7481 26.9979 30.0453 19.9437 25.8651C19.8131 25.7345 19.6824 25.7345 19.5518 25.6038C13.6734 22.338 7.79489 19.5947 -1.21875 19.5947V45.7212H1921.43Z" fill="#302F2E"/>
<path d="M1921.43 138L1921.43 22.208C1912.42 22.208 1906.54 24.9513 1901.05 28.2171C1900.92 28.3477 1900.66 28.4784 1900.53 28.4784C1899.49 29.0009 1898.57 29.6541 1897.66 30.1766C1897.53 30.3072 1897.27 30.4379 1897.14 30.4379C1891.26 33.9649 1885.12 37.2307 1875.45 37.2307C1854.55 37.2307 1850.37 22.208 1829.47 22.208C1824.9 22.208 1821.11 22.9918 1817.84 24.0369C1816.54 24.4288 1815.23 24.9513 1814.05 25.6045C1813.53 25.8657 1813.01 26.127 1812.49 26.3882C1811.05 27.172 1809.61 27.9558 1808.31 28.7396C1807.91 29.0009 1807.52 29.2622 1807 29.5234C1806.74 29.6541 1806.35 29.9153 1806.08 30.046C1799.94 33.7037 1793.67 37.3614 1783.49 37.3614C1762.58 37.3614 1758.4 22.3386 1737.5 22.3386C1716.6 22.3386 1712.42 37.3614 1691.52 37.3614C1670.62 37.3614 1666.44 22.3386 1645.67 22.3386C1645.67 22.3386 1645.67 22.3386 1645.54 22.3386C1645.54 22.3386 1645.54 22.3386 1645.41 22.3386C1624.64 22.4693 1620.46 37.3614 1599.55 37.3614C1578.65 37.3614 1574.47 22.3386 1553.57 22.3386C1532.67 22.3386 1528.49 37.3614 1507.46 37.3614C1486.56 37.3614 1482.38 22.3386 1461.48 22.3386C1440.57 22.3386 1436.39 37.3614 1415.49 37.3614C1397.73 37.3614 1391.98 26.3882 1377.74 23.2531C1376.3 22.8612 1374.74 22.5999 1373.04 22.4693V22.208C1372.38 22.208 1371.86 22.208 1371.21 22.208C1370.69 22.208 1370.03 22.208 1369.38 22.208V22.3386C1368.86 22.3386 1368.34 22.4693 1367.68 22.4693C1367.03 22.4693 1366.64 22.5999 1366.11 22.7305C1364.02 23.1224 1362.2 23.645 1360.5 24.2981C1360.11 24.4288 1359.58 24.5594 1359.19 24.8207C1348.61 29.1315 1342.34 37.2307 1326.92 37.2307C1306.02 37.2307 1301.84 22.208 1280.94 22.208C1260.04 22.208 1255.86 37.2307 1234.83 37.2307C1213.93 37.2307 1209.75 22.208 1188.85 22.208C1167.94 22.208 1163.76 37.2307 1142.86 37.2307C1121.96 37.2307 1117.78 22.208 1097.01 22.208C1097.01 22.208 1097.01 22.208 1096.88 22.208C1096.88 22.208 1096.88 22.208 1096.75 22.208C1075.98 22.3386 1071.8 37.2307 1050.9 37.2307C1030 37.2307 1025.82 22.208 1004.92 22.208C984.014 22.208 979.834 37.2307 958.802 37.2307C937.901 37.2307 933.721 22.208 912.82 22.208C891.918 22.208 887.738 37.2307 866.837 37.2307C846.589 37.2307 842.017 23.1224 822.683 22.208C822.422 22.208 822.03 22.208 821.769 22.208C821.507 22.208 821.116 22.208 820.854 22.208C801.521 23.1224 796.949 37.2307 776.701 37.2307C755.799 37.2307 751.619 22.208 730.718 22.208C709.817 22.208 705.636 37.2307 684.605 37.2307C663.703 37.2307 659.523 22.208 638.622 22.208C617.721 22.208 613.541 37.2307 592.639 37.2307C571.738 37.2307 567.558 22.208 546.787 22.208C546.787 22.208 546.787 22.208 546.657 22.208C546.526 22.208 546.657 22.208 546.526 22.208C525.756 22.3386 521.575 37.2307 500.674 37.2307C478.989 37.2307 474.809 22.208 453.908 22.208C433.007 22.208 428.826 37.2307 407.925 37.2307C387.024 37.2307 382.844 22.208 361.942 22.208C341.041 22.208 336.861 37.2307 315.96 37.2307C296.887 37.2307 291.793 24.8207 275.202 22.4693V22.208C274.288 22.208 273.374 22.208 272.59 22.3386C271.675 22.3386 270.892 22.208 269.977 22.208V22.5999C253.517 24.8207 248.292 37.3614 229.22 37.3614C208.318 37.3614 204.138 22.3386 183.237 22.3386C162.336 22.3386 158.156 37.3614 137.124 37.3614C116.223 37.3614 112.042 22.3386 91.1412 22.3386C70.24 22.3386 66.0597 37.3614 45.1585 37.3614C33.4016 37.3614 27.0006 32.6586 19.9465 28.4784C19.8158 28.3477 19.6852 28.3477 19.5546 28.2171C13.6761 24.9513 7.79764 22.208 -1.216 22.208L-1.21875 138H1921.43Z" fill="#B4EDD8"/>
</g>
<defs>
<clipPath id="clip0_1222_20932">
<rect width="1920" height="130" fill="white"/>
</clipPath>
</defs>
</svg>
