<svg width="44" height="44" viewBox="0 0 44 44" fill="none" xmlns="http://www.w3.org/2000/svg">
<circle cx="22" cy="22" r="21.45" fill="#F9BE3B"/>
<circle cx="22" cy="22" r="21.45" fill="white" fill-opacity="0.6"/>
<circle cx="22" cy="22" r="21.45" fill="url(#paint0_linear_2632_38546)" fill-opacity="0.6" style="mix-blend-mode:overlay"/>
<circle cx="22" cy="22" r="21.45" stroke="#171717" stroke-width="1.1"/>
<path d="M22.75 9V12C22.75 12.1989 22.671 12.3897 22.5303 12.5303C22.3897 12.671 22.1989 12.75 22 12.75C21.8011 12.75 21.6103 12.671 21.4697 12.5303C21.329 12.3897 21.25 12.1989 21.25 12V9C21.25 8.80109 21.329 8.61032 21.4697 8.46967C21.6103 8.32902 21.8011 8.25 22 8.25C22.1989 8.25 22.3897 8.32902 22.5303 8.46967C22.671 8.61032 22.75 8.80109 22.75 9ZM26.2422 14.5078C26.3408 14.5078 26.4384 14.4883 26.5294 14.4505C26.6205 14.4127 26.7032 14.3573 26.7728 14.2875L28.8944 12.1669C29.0351 12.0261 29.1142 11.8353 29.1142 11.6363C29.1142 11.4372 29.0351 11.2464 28.8944 11.1056C28.7536 10.9649 28.5628 10.8858 28.3638 10.8858C28.1647 10.8858 27.9739 10.9649 27.8331 11.1056L25.7125 13.2272C25.6075 13.332 25.536 13.4656 25.507 13.6111C25.478 13.7566 25.4928 13.9074 25.5495 14.0445C25.6062 14.1816 25.7023 14.2987 25.8256 14.3812C25.9489 14.4637 26.0938 14.5077 26.2422 14.5078ZM31 17.25H28C27.8011 17.25 27.6103 17.329 27.4697 17.4697C27.329 17.6103 27.25 17.8011 27.25 18C27.25 18.1989 27.329 18.3897 27.4697 18.5303C27.6103 18.671 27.8011 18.75 28 18.75H31C31.1989 18.75 31.3897 18.671 31.5303 18.5303C31.671 18.3897 31.75 18.1989 31.75 18C31.75 17.8011 31.671 17.6103 31.5303 17.4697C31.3897 17.329 31.1989 17.25 31 17.25ZM26.7728 21.7125C26.631 21.5778 26.4422 21.5038 26.2466 21.5063C26.0511 21.5088 25.8642 21.5876 25.7259 21.7259C25.5876 21.8642 25.5088 22.0511 25.5063 22.2466C25.5038 22.4422 25.5778 22.631 25.7125 22.7728L27.8331 24.8944C27.9739 25.0351 28.1647 25.1142 28.3638 25.1142C28.5628 25.1142 28.7536 25.0351 28.8944 24.8944C29.0351 24.7536 29.1142 24.5628 29.1142 24.3638C29.1142 24.1647 29.0351 23.9739 28.8944 23.8331L26.7728 21.7125ZM22 23.25C21.8011 23.25 21.6103 23.329 21.4697 23.4697C21.329 23.6103 21.25 23.8011 21.25 24V27C21.25 27.1989 21.329 27.3897 21.4697 27.5303C21.6103 27.671 21.8011 27.75 22 27.75C22.1989 27.75 22.3897 27.671 22.5303 27.5303C22.671 27.3897 22.75 27.1989 22.75 27V24C22.75 23.8011 22.671 23.6103 22.5303 23.4697C22.3897 23.329 22.1989 23.25 22 23.25ZM17.2272 21.7125L15.1056 23.8331C14.9649 23.9739 14.8858 24.1647 14.8858 24.3638C14.8858 24.5628 14.9649 24.7536 15.1056 24.8944C15.2464 25.0351 15.4372 25.1142 15.6363 25.1142C15.8353 25.1142 16.0261 25.0351 16.1669 24.8944L18.2875 22.7728C18.4222 22.631 18.4962 22.4422 18.4937 22.2466C18.4912 22.0511 18.4124 21.8642 18.2741 21.7259C18.1358 21.5876 17.9489 21.5088 17.7534 21.5063C17.5578 21.5038 17.369 21.5778 17.2272 21.7125ZM16.75 18C16.75 17.8011 16.671 17.6103 16.5303 17.4697C16.3897 17.329 16.1989 17.25 16 17.25H13C12.8011 17.25 12.6103 17.329 12.4697 17.4697C12.329 17.6103 12.25 17.8011 12.25 18C12.25 18.1989 12.329 18.3897 12.4697 18.5303C12.6103 18.671 12.8011 18.75 13 18.75H16C16.1989 18.75 16.3897 18.671 16.5303 18.5303C16.671 18.3897 16.75 18.1989 16.75 18ZM16.1669 11.1056C16.0261 10.9649 15.8353 10.8858 15.6363 10.8858C15.4372 10.8858 15.2464 10.9649 15.1056 11.1056C14.9649 11.2464 14.8858 11.4372 14.8858 11.6363C14.8858 11.8353 14.9649 12.0261 15.1056 12.1669L17.2272 14.2875C17.369 14.4222 17.5578 14.4962 17.7534 14.4937C17.9489 14.4912 18.1358 14.4124 18.2741 14.2741C18.4124 14.1358 18.4912 13.9489 18.4937 13.7534C18.4962 13.5578 18.4222 13.369 18.2875 13.2272L16.1669 11.1056Z" fill="#171717"/>
<rect x="12" y="18" width="10" height="13" fill="white"/>
<rect x="22" y="18" width="10" height="13" fill="#A3E635"/>
<path d="M31.75 16.5H25C24.4178 16.5 23.8437 16.6355 23.3229 16.8959C22.8022 17.1563 22.3493 17.5343 22 18C21.6507 17.5343 21.1978 17.1563 20.6771 16.8959C20.1563 16.6355 19.5822 16.5 19 16.5H12.25C12.0511 16.5 11.8603 16.579 11.7197 16.7197C11.579 16.8603 11.5 17.0511 11.5 17.25V30.75C11.5 30.9489 11.579 31.1397 11.7197 31.2803C11.8603 31.421 12.0511 31.5 12.25 31.5H19C19.5967 31.5 20.169 31.7371 20.591 32.159C21.0129 32.581 21.25 33.1533 21.25 33.75C21.25 33.9489 21.329 34.1397 21.4697 34.2803C21.6103 34.421 21.8011 34.5 22 34.5C22.1989 34.5 22.3897 34.421 22.5303 34.2803C22.671 34.1397 22.75 33.9489 22.75 33.75C22.75 33.1533 22.9871 32.581 23.409 32.159C23.831 31.7371 24.4033 31.5 25 31.5H31.75C31.9489 31.5 32.1397 31.421 32.2803 31.2803C32.421 31.1397 32.5 30.9489 32.5 30.75V17.25C32.5 17.0511 32.421 16.8603 32.2803 16.7197C32.1397 16.579 31.9489 16.5 31.75 16.5ZM19 30H13V18H19C19.5967 18 20.169 18.2371 20.591 18.659C21.0129 19.081 21.25 19.6533 21.25 20.25V30.75C20.6015 30.262 19.8116 29.9987 19 30ZM31 30H25C24.1884 29.9987 23.3985 30.262 22.75 30.75V20.25C22.75 19.6533 22.9871 19.081 23.409 18.659C23.831 18.2371 24.4033 18 25 18H31V30ZM25 20.25H28.75C28.9489 20.25 29.1397 20.329 29.2803 20.4697C29.421 20.6103 29.5 20.8011 29.5 21C29.5 21.1989 29.421 21.3897 29.2803 21.5303C29.1397 21.671 28.9489 21.75 28.75 21.75H25C24.8011 21.75 24.6103 21.671 24.4697 21.5303C24.329 21.3897 24.25 21.1989 24.25 21C24.25 20.8011 24.329 20.6103 24.4697 20.4697C24.6103 20.329 24.8011 20.25 25 20.25ZM29.5 24C29.5 24.1989 29.421 24.3897 29.2803 24.5303C29.1397 24.671 28.9489 24.75 28.75 24.75H25C24.8011 24.75 24.6103 24.671 24.4697 24.5303C24.329 24.3897 24.25 24.1989 24.25 24C24.25 23.8011 24.329 23.6103 24.4697 23.4697C24.6103 23.329 24.8011 23.25 25 23.25H28.75C28.9489 23.25 29.1397 23.329 29.2803 23.4697C29.421 23.6103 29.5 23.8011 29.5 24ZM29.5 27C29.5 27.1989 29.421 27.3897 29.2803 27.5303C29.1397 27.671 28.9489 27.75 28.75 27.75H25C24.8011 27.75 24.6103 27.671 24.4697 27.5303C24.329 27.3897 24.25 27.1989 24.25 27C24.25 26.8011 24.329 26.6103 24.4697 26.4697C24.6103 26.329 24.8011 26.25 25 26.25H28.75C28.9489 26.25 29.1397 26.329 29.2803 26.4697C29.421 26.6103 29.5 26.8011 29.5 27Z" fill="#171717"/>
<defs>
<linearGradient id="paint0_linear_2632_38546" x1="22" y1="0" x2="22" y2="44" gradientUnits="userSpaceOnUse">
<stop stop-opacity="0"/>
<stop offset="1"/>
</linearGradient>
</defs>
</svg>
