<svg width="44" height="44" viewBox="0 0 44 44" fill="none" xmlns="http://www.w3.org/2000/svg">
<path d="M22 0.549805C33.8465 0.549805 43.4502 10.1535 43.4502 22C43.4502 33.8465 33.8465 43.4502 22 43.4502C10.1535 43.4502 0.549805 33.8465 0.549805 22C0.549805 10.1535 10.1535 0.549805 22 0.549805Z" fill="#4185F3"/>
<path d="M22 0.549805C33.8465 0.549805 43.4502 10.1535 43.4502 22C43.4502 33.8465 33.8465 43.4502 22 43.4502C10.1535 43.4502 0.549805 33.8465 0.549805 22C0.549805 10.1535 10.1535 0.549805 22 0.549805Z" fill="white" fill-opacity="0.7"/>
<path d="M22 0.549805C33.8465 0.549805 43.4502 10.1535 43.4502 22C43.4502 33.8465 33.8465 43.4502 22 43.4502C10.1535 43.4502 0.549805 33.8465 0.549805 22C0.549805 10.1535 10.1535 0.549805 22 0.549805Z" fill="url(#paint0_linear_2632_38535)" fill-opacity="0.6" style="mix-blend-mode:overlay"/>
<path d="M22 0.549805C33.8465 0.549805 43.4502 10.1535 43.4502 22C43.4502 33.8465 33.8465 43.4502 22 43.4502C10.1535 43.4502 0.549805 33.8465 0.549805 22C0.549805 10.1535 10.1535 0.549805 22 0.549805Z" stroke="#171717" stroke-width="1.1"/>
<rect x="13.3359" y="23.083" width="5.41667" height="6.5" fill="#35D399"/>
<rect x="18.75" y="17.667" width="5.41667" height="11.9167" fill="white"/>
<rect x="25.25" y="13.333" width="5.41667" height="16.25" fill="#A3E635"/>
<path fill-rule="evenodd" clip-rule="evenodd" d="M24.0312 13.0625C24.0312 12.6138 24.395 12.25 24.8438 12.25H30.5312C30.98 12.25 31.3438 12.6138 31.3438 13.0625V29.3125H32.1562C32.605 29.3125 32.9688 29.6763 32.9688 30.125C32.9688 30.5737 32.605 30.9375 32.1562 30.9375H11.8438C11.395 30.9375 11.0312 30.5737 11.0312 30.125C11.0312 29.6763 11.395 29.3125 11.8438 29.3125H12.6562V22.8125C12.6562 22.3638 13.02 22 13.4688 22H18.3438V17.9375C18.3438 17.4888 18.7075 17.125 19.1562 17.125H24.0312V13.0625ZM24.0312 18.75H19.9688V29.3125H24.0312V18.75ZM25.6563 29.3125H29.7188V13.875H25.6563V29.3125ZM18.3438 29.3125V23.625H14.2812V29.3125H18.3438Z" fill="#171717"/>
<defs>
<linearGradient id="paint0_linear_2632_38535" x1="22" y1="0" x2="22" y2="44" gradientUnits="userSpaceOnUse">
<stop stop-opacity="0"/>
<stop offset="1"/>
</linearGradient>
</defs>
</svg>
