<svg width="44" height="44" viewBox="0 0 44 44" fill="none" xmlns="http://www.w3.org/2000/svg">
<circle cx="22" cy="22" r="21.45" fill="#F99247"/>
<circle cx="22" cy="22" r="21.45" fill="white" fill-opacity="0.61"/>
<circle cx="22" cy="22" r="21.45" fill="url(#paint0_linear_2632_38574)" style="mix-blend-mode:overlay"/>
<circle cx="22" cy="22" r="21.45" stroke="#171717" stroke-width="1.1"/>
<rect x="13" y="22" width="4.33333" height="6.5" fill="#A3E635"/>
<rect x="27.4141" y="22" width="4.33333" height="6.5" fill="#A3E635"/>
<path d="M28.9272 15.1244C28.03 14.2182 26.9629 13.4978 25.7869 13.0046C24.611 12.5114 23.3493 12.2549 22.0741 12.25H22C19.4141 12.25 16.9342 13.2772 15.1057 15.1057C13.2772 16.9342 12.25 19.4141 12.25 22V27.25C12.25 27.8467 12.4871 28.419 12.909 28.841C13.331 29.2629 13.9033 29.5 14.5 29.5H16C16.5967 29.5 17.169 29.2629 17.591 28.841C18.0129 28.419 18.25 27.8467 18.25 27.25V23.5C18.25 22.9033 18.0129 22.331 17.591 21.909C17.169 21.4871 16.5967 21.25 16 21.25H13.7838C13.9284 19.6862 14.5158 18.196 15.4771 16.9541C16.4384 15.7122 17.7338 14.77 19.2114 14.238C20.689 13.706 22.2877 13.6062 23.82 13.9504C25.3524 14.2945 26.7548 15.0682 27.8631 16.1809C29.2177 17.5425 30.0509 19.3366 30.2172 21.25H28C27.4033 21.25 26.831 21.4871 26.409 21.909C25.9871 22.331 25.75 22.9033 25.75 23.5V27.25C25.75 27.8467 25.9871 28.419 26.409 28.841C26.831 29.2629 27.4033 29.5 28 29.5H30.25C30.25 30.0967 30.0129 30.669 29.591 31.091C29.169 31.5129 28.5967 31.75 28 31.75H22.75C22.5511 31.75 22.3603 31.829 22.2197 31.9697C22.079 32.1103 22 32.3011 22 32.5C22 32.6989 22.079 32.8897 22.2197 33.0303C22.3603 33.171 22.5511 33.25 22.75 33.25H28C28.9946 33.25 29.9484 32.8549 30.6517 32.1516C31.3549 31.4484 31.75 30.4946 31.75 29.5V22C31.7549 20.7246 31.5081 19.4608 31.0237 18.2809C30.5393 17.1011 29.8268 16.0284 28.9272 15.1244ZM16 22.75C16.1989 22.75 16.3897 22.829 16.5303 22.9697C16.671 23.1103 16.75 23.3011 16.75 23.5V27.25C16.75 27.4489 16.671 27.6397 16.5303 27.7803C16.3897 27.921 16.1989 28 16 28H14.5C14.3011 28 14.1103 27.921 13.9697 27.7803C13.829 27.6397 13.75 27.4489 13.75 27.25V22.75H16ZM28 28C27.8011 28 27.6103 27.921 27.4697 27.7803C27.329 27.6397 27.25 27.4489 27.25 27.25V23.5C27.25 23.3011 27.329 23.1103 27.4697 22.9697C27.6103 22.829 27.8011 22.75 28 22.75H30.25V28H28Z" fill="#171717"/>
<defs>
<linearGradient id="paint0_linear_2632_38574" x1="22" y1="0" x2="22" y2="44" gradientUnits="userSpaceOnUse">
<stop stop-opacity="0"/>
<stop offset="1"/>
</linearGradient>
</defs>
</svg>
