<svg width="44" height="44" viewBox="0 0 44 44" fill="none" xmlns="http://www.w3.org/2000/svg">
<path d="M22 0.549805C33.8465 0.549805 43.4502 10.1535 43.4502 22C43.4502 33.8465 33.8465 43.4502 22 43.4502C10.1535 43.4502 0.549805 33.8465 0.549805 22C0.549805 10.1535 10.1535 0.549805 22 0.549805Z" fill="#3FD29A"/>
<path d="M22 0.549805C33.8465 0.549805 43.4502 10.1535 43.4502 22C43.4502 33.8465 33.8465 43.4502 22 43.4502C10.1535 43.4502 0.549805 33.8465 0.549805 22C0.549805 10.1535 10.1535 0.549805 22 0.549805Z" fill="white" fill-opacity="0.61"/>
<path d="M22 0.549805C33.8465 0.549805 43.4502 10.1535 43.4502 22C43.4502 33.8465 33.8465 43.4502 22 43.4502C10.1535 43.4502 0.549805 33.8465 0.549805 22C0.549805 10.1535 10.1535 0.549805 22 0.549805Z" fill="url(#paint0_linear_2632_38667)" style="mix-blend-mode:overlay"/>
<path d="M22 0.549805C33.8465 0.549805 43.4502 10.1535 43.4502 22C43.4502 33.8465 33.8465 43.4502 22 43.4502C10.1535 43.4502 0.549805 33.8465 0.549805 22C0.549805 10.1535 10.1535 0.549805 22 0.549805Z" stroke="#171717" stroke-width="1.1"/>
<rect x="12.6" y="12.6" width="18.8" height="18.8" rx="2.73333" fill="white" stroke="#171717" stroke-width="1.2"/>
<path d="M15.7206 17.7692H18.8546C18.9566 17.7692 19.0545 17.7287 19.1266 17.6566C19.1987 17.5845 19.2392 17.4866 19.2392 17.3846C19.2392 17.2826 19.1987 17.1848 19.1266 17.1127C19.0545 17.0405 18.9566 17 18.8546 17H15.7206C15.6185 17 15.5207 17.0405 15.4486 17.1127C15.3765 17.1848 15.3359 17.2826 15.3359 17.3846C15.3359 17.4866 15.3765 17.5845 15.4486 17.6566C15.5207 17.7287 15.6185 17.7692 15.7206 17.7692ZM22.9381 17.7692C23.0401 17.7692 23.138 17.7287 23.2101 17.6566C23.2822 17.5845 23.3228 17.4866 23.3228 17.3846C23.3228 17.2826 23.2822 17.1848 23.2101 17.1127C23.138 17.0405 23.0401 17 22.9381 17H20.5425C20.4405 17 20.3427 17.0405 20.2706 17.1127C20.1984 17.1848 20.1579 17.2826 20.1579 17.3846C20.1579 17.4866 20.1984 17.5845 20.2706 17.6566C20.3427 17.7287 20.4405 17.7692 20.5425 17.7692H22.9381ZM27.6315 17.7692C27.7335 17.7692 27.8314 17.7287 27.9035 17.6566C27.9756 17.5845 28.0162 17.4866 28.0162 17.3846C28.0162 17.2826 27.9756 17.1848 27.9035 17.1127C27.8314 17.0405 27.7335 17 27.6315 17H25.2264C25.1244 17 25.0266 17.0405 24.9544 17.1127C24.8823 17.1848 24.8418 17.2826 24.8418 17.3846C24.8418 17.4866 24.8823 17.5845 24.9544 17.6566C25.0266 17.7287 25.1244 17.7692 25.2264 17.7692H27.6315Z" fill="#171717"/>
<path d="M15.7206 24.4362H28.0213C28.1233 24.4362 28.2211 24.3957 28.2932 24.3236C28.3654 24.2514 28.4059 24.1536 28.4059 24.0516C28.4059 23.9496 28.3654 23.8518 28.2932 23.7796C28.2211 23.7075 28.1233 23.667 28.0213 23.667H15.7206C15.6185 23.667 15.5207 23.7075 15.4486 23.7796C15.3765 23.8518 15.3359 23.9496 15.3359 24.0516C15.3359 24.1536 15.3765 24.2514 15.4486 24.3236C15.5207 24.3957 15.6185 24.4362 15.7206 24.4362Z" fill="#171717"/>
<path d="M15.7206 27.7692H18.8546C18.9566 27.7692 19.0545 27.7287 19.1266 27.6566C19.1987 27.5845 19.2392 27.4866 19.2392 27.3846C19.2392 27.2826 19.1987 27.1848 19.1266 27.1127C19.0545 27.0405 18.9566 27 18.8546 27H15.7206C15.6185 27 15.5207 27.0405 15.4486 27.1127C15.3765 27.1848 15.3359 27.2826 15.3359 27.3846C15.3359 27.4866 15.3765 27.5845 15.4486 27.6566C15.5207 27.7287 15.6185 27.7692 15.7206 27.7692ZM27.9381 27.7692C28.0401 27.7692 28.138 27.7287 28.2101 27.6566C28.2822 27.5845 28.3228 27.4866 28.3228 27.3846C28.3228 27.2826 28.2822 27.1848 28.2101 27.1127C28.138 27.0405 28.0401 27 27.9381 27H20.5425C20.4405 27 20.3427 27.0405 20.2706 27.1127C20.1984 27.1848 20.1579 27.2826 20.1579 27.3846C20.1579 27.4866 20.1984 27.5845 20.2706 27.6566C20.3427 27.7287 20.4405 27.7692 20.5425 27.7692H27.9381Z" fill="#171717"/>
<path d="M15.7206 21.1022H18.8546C18.9566 21.1022 19.0545 21.0617 19.1266 20.9896C19.1987 20.9175 19.2392 20.8196 19.2392 20.7176C19.2392 20.6156 19.1987 20.5178 19.1266 20.4457C19.0545 20.3735 18.9566 20.333 18.8546 20.333H15.7206C15.6185 20.333 15.5207 20.3735 15.4486 20.4457C15.3765 20.5178 15.3359 20.6156 15.3359 20.7176C15.3359 20.8196 15.3765 20.9175 15.4486 20.9896C15.5207 21.0617 15.6185 21.1022 15.7206 21.1022ZM27.9381 21.1022C28.0401 21.1022 28.138 21.0617 28.2101 20.9896C28.2822 20.9175 28.3228 20.8196 28.3228 20.7176C28.3228 20.6156 28.2822 20.5178 28.2101 20.4457C28.138 20.3735 28.0401 20.333 27.9381 20.333H20.5425C20.4405 20.333 20.3427 20.3735 20.2706 20.4457C20.1984 20.5178 20.1579 20.6156 20.1579 20.7176C20.1579 20.8196 20.1984 20.9175 20.2706 20.9896C20.3427 21.0617 20.4405 21.1022 20.5425 21.1022H27.9381Z" fill="#171717"/>
<defs>
<linearGradient id="paint0_linear_2632_38667" x1="22" y1="0" x2="22" y2="44" gradientUnits="userSpaceOnUse">
<stop stop-opacity="0"/>
<stop offset="1"/>
</linearGradient>
</defs>
</svg>
