<svg width="122" height="80" viewBox="0 0 122 80" fill="none" xmlns="http://www.w3.org/2000/svg">
<mask id="path-1-outside-1_1222_20925" maskUnits="userSpaceOnUse" x="0" y="0" width="122" height="80" fill="black">
<rect fill="white" width="122" height="80"/>
<path d="M52.4697 1C62.7143 1 71.6402 6.64088 76.3145 14.9854C79.4239 13.7549 82.8132 13.0791 86.3604 13.0791C99.5777 13.0791 110.602 22.4676 113.129 34.9395C117.47 39.1501 120.17 45.0446 120.17 51.5703C120.17 64.365 109.798 74.7373 97.0029 74.7373C92.8755 74.7373 89.0009 73.6565 85.6445 71.7646C80.7911 76.1869 74.3382 78.8838 67.2549 78.8838C58.5335 78.8838 50.7663 74.7966 45.7656 68.4326C41.0328 72.3686 34.9502 74.7373 28.3135 74.7373C13.2287 74.7373 1 62.5087 1 47.4238C1.00002 32.9865 12.2015 21.1669 26.3877 20.1787C29.8498 9.06669 40.2179 1.00002 52.4697 1Z"/>
</mask>
<path d="M52.4697 1C62.7143 1 71.6402 6.64088 76.3145 14.9854C79.4239 13.7549 82.8132 13.0791 86.3604 13.0791C99.5777 13.0791 110.602 22.4676 113.129 34.9395C117.47 39.1501 120.17 45.0446 120.17 51.5703C120.17 64.365 109.798 74.7373 97.0029 74.7373C92.8755 74.7373 89.0009 73.6565 85.6445 71.7646C80.7911 76.1869 74.3382 78.8838 67.2549 78.8838C58.5335 78.8838 50.7663 74.7966 45.7656 68.4326C41.0328 72.3686 34.9502 74.7373 28.3135 74.7373C13.2287 74.7373 1 62.5087 1 47.4238C1.00002 32.9865 12.2015 21.1669 26.3877 20.1787C29.8498 9.06669 40.2179 1.00002 52.4697 1Z" fill="white"/>
<path d="M52.4697 1V0V1ZM76.3145 14.9854L75.442 15.4741L75.8693 16.2369L76.6824 15.9152L76.3145 14.9854ZM86.3604 13.0791V12.0791V13.0791ZM113.129 34.9395L112.149 35.138L112.21 35.4416L112.433 35.6573L113.129 34.9395ZM120.17 51.5703L121.17 51.5703V51.5703H120.17ZM97.0029 74.7373V75.7373V74.7373ZM85.6445 71.7646L86.1356 70.8935L85.5056 70.5384L84.971 71.0255L85.6445 71.7646ZM67.2549 78.8838V79.8838V78.8838ZM45.7656 68.4326L46.5519 67.8148L45.9167 67.0064L45.1262 67.6637L45.7656 68.4326ZM28.3135 74.7373L28.3135 75.7373H28.3135V74.7373ZM1 47.4238H0H1ZM26.3877 20.1787L26.4572 21.1763L27.1391 21.1288L27.3424 20.4762L26.3877 20.1787ZM52.4697 1V2C62.3378 2 70.9374 7.43241 75.442 15.4741L76.3145 14.9854L77.1869 14.4966C72.3431 5.84936 63.0908 0 52.4697 0V1ZM76.3145 14.9854L76.6824 15.9152C79.6765 14.7303 82.9412 14.0791 86.3604 14.0791V13.0791V12.0791C82.6853 12.0791 79.1712 12.7794 75.9465 14.0555L76.3145 14.9854ZM86.3604 13.0791V14.0791C99.0926 14.0791 109.714 23.1232 112.149 35.138L113.129 34.9395L114.109 34.7409C111.489 21.812 100.063 12.0791 86.3604 12.0791V13.0791ZM113.129 34.9395L112.433 35.6573C116.588 39.6875 119.17 45.3263 119.17 51.5703H120.17H121.17C121.17 44.7629 118.353 38.6127 113.825 34.2216L113.129 34.9395ZM120.17 51.5703L119.17 51.5703C119.17 63.8127 109.245 73.7373 97.0029 73.7373V74.7373V75.7373C110.35 75.7373 121.17 64.9173 121.17 51.5703L120.17 51.5703ZM97.0029 74.7373V73.7373C93.0523 73.7373 89.3462 72.7032 86.1356 70.8935L85.6445 71.7646L85.1535 72.6358C88.6556 74.6098 92.6988 75.7373 97.0029 75.7373V74.7373ZM85.6445 71.7646L84.971 71.0255C80.2945 75.2865 74.0793 77.8838 67.2549 77.8838V78.8838V79.8838C74.597 79.8838 81.2877 77.0872 86.318 72.5038L85.6445 71.7646ZM67.2549 78.8838V77.8838C58.8532 77.8838 51.3711 73.9478 46.5519 67.8148L45.7656 68.4326L44.9793 69.0505C50.1614 75.6454 58.2137 79.8838 67.2549 79.8838V78.8838ZM45.7656 68.4326L45.1262 67.6637C40.5661 71.456 34.7079 73.7373 28.3135 73.7373V74.7373V75.7373C35.1926 75.7373 41.4994 73.2811 46.405 69.2015L45.7656 68.4326ZM28.3135 74.7373L28.3135 73.7373C13.7809 73.7373 2 61.9564 2 47.4238H1H0C0 63.0609 12.6764 75.7373 28.3135 75.7373L28.3135 74.7373ZM1 47.4238H2C2.00002 33.5156 12.7913 22.1282 26.4572 21.1763L26.3877 20.1787L26.3182 19.1811C11.6118 20.2056 2.45571e-05 32.4574 0 47.4238H1ZM26.3877 20.1787L27.3424 20.4762C30.678 9.77013 40.6679 2.00002 52.4697 2V1V0C39.7679 2.08616e-05 29.0215 8.36325 25.433 19.8813L26.3877 20.1787Z" fill="#171717" mask="url(#path-1-outside-1_1222_20925)"/>
</svg>
