<svg width="93" height="46" viewBox="0 0 93 46" fill="none" xmlns="http://www.w3.org/2000/svg">
<mask id="path-1-outside-1_1222_20822" maskUnits="userSpaceOnUse" x="0" y="0" width="93" height="46" fill="black">
<rect fill="white" width="93" height="46"/>
<path d="M41.6104 1C48.3446 1.00008 54.3061 4.30511 57.9639 9.38086C58.4762 9.33663 58.9947 9.31348 59.5186 9.31348C65.9736 9.31348 71.6277 12.7415 74.7607 17.876C75.6029 17.7139 76.4728 17.6279 77.3623 17.6279C84.9207 17.6282 91.0479 23.756 91.0479 31.3145C91.0476 38.8727 84.9205 44.9997 77.3623 45C77.3612 45 77.3595 44.999 77.3584 44.999V45H18.2656V44.999C8.72999 44.998 1.00011 37.2683 1 27.7324C1 18.1959 8.73104 10.4648 18.2676 10.4648C20.2626 10.4649 22.1782 10.8043 23.9609 11.4268C27.3911 5.21084 34.0087 1 41.6104 1Z"/>
</mask>
<path d="M41.6104 1C48.3446 1.00008 54.3061 4.30511 57.9639 9.38086C58.4762 9.33663 58.9947 9.31348 59.5186 9.31348C65.9736 9.31348 71.6277 12.7415 74.7607 17.876C75.6029 17.7139 76.4728 17.6279 77.3623 17.6279C84.9207 17.6282 91.0479 23.756 91.0479 31.3145C91.0476 38.8727 84.9205 44.9997 77.3623 45C77.3612 45 77.3595 44.999 77.3584 44.999V45H18.2656V44.999C8.72999 44.998 1.00011 37.2683 1 27.7324C1 18.1959 8.73104 10.4648 18.2676 10.4648C20.2626 10.4649 22.1782 10.8043 23.9609 11.4268C27.3911 5.21084 34.0087 1 41.6104 1Z" fill="white"/>
<path d="M41.6104 1L41.6104 0H41.6104V1ZM57.9639 9.38086L57.1526 9.96551L57.4844 10.426L58.0499 10.3772L57.9639 9.38086ZM59.5186 9.31348V8.31348H59.5185L59.5186 9.31348ZM74.7607 17.876L73.9071 18.3969L74.2685 18.989L74.9497 18.858L74.7607 17.876ZM77.3623 17.6279L77.3623 16.6279H77.3623V17.6279ZM91.0479 31.3145L92.0479 31.3145V31.3145H91.0479ZM77.3623 45V46H77.3623L77.3623 45ZM77.3584 44.999L77.3586 43.999L76.3584 43.9988V44.999H77.3584ZM77.3584 45V46H78.3584V45H77.3584ZM18.2656 45H17.2656V46H18.2656V45ZM18.2656 44.999H19.2656V43.9991L18.2657 43.999L18.2656 44.999ZM1 27.7324H0V27.7324L1 27.7324ZM18.2676 10.4648L18.2676 9.46484H18.2676V10.4648ZM23.9609 11.4268L23.6313 12.3709L24.4285 12.6492L24.8365 11.9099L23.9609 11.4268ZM41.6104 1L41.6103 2C48.0094 2.00007 53.6746 5.13924 57.1526 9.96551L57.9639 9.38086L58.7752 8.79621C54.9376 3.47098 48.6798 8.05855e-05 41.6104 0L41.6104 1ZM57.9639 9.38086L58.0499 10.3772C58.5344 10.3353 59.0242 10.3135 59.5186 10.3135L59.5186 9.31348L59.5185 8.31348C58.9653 8.31348 58.418 8.33793 57.8779 8.38457L57.9639 9.38086ZM59.5186 9.31348V10.3135C65.6106 10.3135 70.9481 13.5474 73.9071 18.3969L74.7607 17.876L75.6144 17.3551C72.3074 11.9355 66.3365 8.31348 59.5186 8.31348V9.31348ZM74.7607 17.876L74.9497 18.858C75.7308 18.7077 76.5374 18.6279 77.3623 18.6279V17.6279V16.6279C76.4082 16.6279 75.4751 16.7202 74.5718 16.894L74.7607 17.876ZM77.3623 17.6279L77.3623 18.6279C84.3683 18.6282 90.0479 24.3082 90.0479 31.3145H91.0479H92.0479C92.0479 23.2038 85.473 16.6282 77.3623 16.6279L77.3623 17.6279ZM91.0479 31.3145L90.0479 31.3144C90.0476 38.3204 84.3682 43.9998 77.3623 44L77.3623 45L77.3623 46C85.4728 45.9997 92.0476 39.425 92.0479 31.3145L91.0479 31.3145ZM77.3623 45V44C77.3977 44 77.4295 44.0019 77.4572 44.0045C77.4848 44.0072 77.5095 44.0107 77.5307 44.0143C77.5519 44.0179 77.5707 44.0219 77.5866 44.0255C77.6026 44.0292 77.6166 44.0329 77.6282 44.0361C77.6399 44.0393 77.65 44.0424 77.6582 44.0449C77.6663 44.0474 77.6732 44.0497 77.6783 44.0514C77.6833 44.0531 77.6874 44.0545 77.6898 44.0553C77.6919 44.0561 77.6937 44.0567 77.6933 44.0566C77.6933 44.0566 77.6932 44.0565 77.693 44.0565C77.6929 44.0564 77.6926 44.0563 77.6923 44.0562C77.6916 44.056 77.6906 44.0556 77.6893 44.0551C77.6867 44.0543 77.6825 44.0528 77.6773 44.0511C77.672 44.0493 77.665 44.047 77.6567 44.0444C77.6484 44.0418 77.6381 44.0387 77.6263 44.0355C77.6145 44.0322 77.6003 44.0285 77.5842 44.0248C77.5681 44.0211 77.5492 44.0171 77.5278 44.0134C77.5065 44.0098 77.4817 44.0062 77.4539 44.0036C77.4261 44.0009 77.3941 43.999 77.3586 43.999L77.3584 44.999L77.3582 45.999C77.3228 45.999 77.291 45.9971 77.2633 45.9945C77.2357 45.9918 77.211 45.9883 77.1898 45.9847C77.1687 45.981 77.1499 45.9771 77.134 45.9734C77.118 45.9698 77.104 45.9661 77.0924 45.9629C77.0807 45.9596 77.0706 45.9566 77.0625 45.9541C77.0543 45.9516 77.0475 45.9493 77.0424 45.9476C77.0373 45.9459 77.0333 45.9445 77.0309 45.9437C77.0288 45.9429 77.0269 45.9423 77.0274 45.9424C77.0274 45.9424 77.0275 45.9425 77.0277 45.9426C77.0278 45.9426 77.0281 45.9427 77.0285 45.9428C77.0291 45.9431 77.0302 45.9434 77.0315 45.9439C77.034 45.9448 77.0382 45.9462 77.0435 45.948C77.0487 45.9497 77.0558 45.9521 77.0641 45.9546C77.0724 45.9572 77.0827 45.9603 77.0945 45.9636C77.1063 45.9669 77.1205 45.9706 77.1366 45.9743C77.1527 45.978 77.1717 45.9819 77.193 45.9856C77.2144 45.9893 77.2392 45.9928 77.267 45.9955C77.2948 45.9981 77.3268 46 77.3623 46V45ZM77.3584 44.999H76.3584V45H77.3584H78.3584V44.999H77.3584ZM77.3584 45V44H18.2656V45V46H77.3584V45ZM18.2656 45H19.2656V44.999H18.2656H17.2656V45H18.2656ZM18.2656 44.999L18.2657 43.999C9.28228 43.9981 2.00011 36.716 2 27.7324L1 27.7324L0 27.7324C0.000119984 37.8206 8.1777 45.998 18.2655 45.999L18.2656 44.999ZM1 27.7324H2C2 18.7482 9.28332 11.4648 18.2676 11.4648V10.4648V9.46484C8.17875 9.46484 0 17.6436 0 27.7324H1ZM18.2676 10.4648L18.2676 11.4648C20.1484 11.4649 21.9527 11.7848 23.6313 12.3709L23.9609 11.4268L24.2906 10.4826C22.4037 9.82386 20.3768 9.46486 18.2676 9.46484L18.2676 10.4648ZM23.9609 11.4268L24.8365 11.9099C28.0978 5.99989 34.3874 2 41.6104 2V1V0C33.6299 0 26.6843 4.42179 23.0854 10.9436L23.9609 11.4268Z" fill="#171717" mask="url(#path-1-outside-1_1222_20822)"/>
</svg>
