<svg width="98" height="61" viewBox="0 0 98 61" fill="none" xmlns="http://www.w3.org/2000/svg">
<mask id="path-1-outside-1_1222_20872" maskUnits="userSpaceOnUse" x="0" y="0" width="98" height="61" fill="black">
<rect fill="white" width="98" height="61"/>
<path d="M38.4375 1C45.3511 1.00001 51.4385 4.53228 54.9971 9.88965C58.3466 7.31628 62.5395 5.78613 67.0898 5.78613C78.0621 5.78615 86.957 14.681 86.957 25.6533C86.957 26.266 86.9273 26.8721 86.873 27.4707C92.6629 30.1375 96.6824 35.9907 96.6826 42.7832C96.6826 52.0898 89.1376 59.6348 79.8311 59.6348C73.1867 59.6346 67.4419 55.7881 64.6982 50.2012C61.0573 54.7423 55.4647 57.6514 49.1914 57.6514C42.8475 57.6514 37.1979 54.678 33.5605 50.0488C30.1181 52.9115 25.6944 54.6347 20.8672 54.6348C9.89486 54.6348 1 45.7399 1 34.7676C1.00005 24.2664 9.14739 15.6682 19.4658 14.9492C21.9843 6.86699 29.5261 1 38.4375 1Z"/>
</mask>
<path d="M38.4375 1C45.3511 1.00001 51.4385 4.53228 54.9971 9.88965C58.3466 7.31628 62.5395 5.78613 67.0898 5.78613C78.0621 5.78615 86.957 14.681 86.957 25.6533C86.957 26.266 86.9273 26.8721 86.873 27.4707C92.6629 30.1375 96.6824 35.9907 96.6826 42.7832C96.6826 52.0898 89.1376 59.6348 79.8311 59.6348C73.1867 59.6346 67.4419 55.7881 64.6982 50.2012C61.0573 54.7423 55.4647 57.6514 49.1914 57.6514C42.8475 57.6514 37.1979 54.678 33.5605 50.0488C30.1181 52.9115 25.6944 54.6347 20.8672 54.6348C9.89486 54.6348 1 45.7399 1 34.7676C1.00005 24.2664 9.14739 15.6682 19.4658 14.9492C21.9843 6.86699 29.5261 1 38.4375 1Z" fill="white"/>
<path d="M38.4375 1V0V1ZM54.9971 9.88965L54.1641 10.4429L54.7568 11.3353L55.6063 10.6826L54.9971 9.88965ZM67.0898 5.78613V4.78613V5.78613ZM86.957 25.6533L87.957 25.6533V25.6533H86.957ZM86.873 27.4707L85.8771 27.3804L85.8134 28.0836L86.4547 28.379L86.873 27.4707ZM96.6826 42.7832H97.6826V42.7832L96.6826 42.7832ZM79.8311 59.6348L79.831 60.6348H79.8311V59.6348ZM64.6982 50.2012L65.5958 49.7604L64.9023 48.3481L63.9181 49.5756L64.6982 50.2012ZM49.1914 57.6514V58.6514V57.6514ZM33.5605 50.0488L34.3469 49.431L33.7117 48.6226L32.9212 49.2799L33.5605 50.0488ZM20.8672 54.6348V55.6348H20.8672L20.8672 54.6348ZM1 34.7676L0 34.7676V34.7676H1ZM19.4658 14.9492L19.5353 15.9468L20.2172 15.8993L20.4205 15.2467L19.4658 14.9492ZM38.4375 1V2C45.0019 2.00001 50.7829 5.35257 54.1641 10.4429L54.9971 9.88965L55.8301 9.33635C52.0941 3.71199 45.7002 1.29342e-05 38.4375 0V1ZM54.9971 9.88965L55.6063 10.6826C58.7873 8.23876 62.7675 6.78613 67.0898 6.78613V5.78613V4.78613C62.3114 4.78613 57.9059 6.39381 54.3878 9.09666L54.9971 9.88965ZM67.0898 5.78613V6.78613C77.5099 6.78615 85.957 15.2333 85.957 25.6533H86.957H87.957C87.957 14.1287 78.6144 4.78615 67.0898 4.78613V5.78613ZM86.957 25.6533L85.957 25.6533C85.957 26.2337 85.9289 26.8096 85.8771 27.3804L86.873 27.4707L87.869 27.561C87.9258 26.9346 87.957 26.2984 87.957 25.6533L86.957 25.6533ZM86.873 27.4707L86.4547 28.379C91.9033 30.8886 95.6825 36.3954 95.6826 42.7832L96.6826 42.7832L97.6826 42.7832C97.6824 35.5859 93.4225 29.3864 87.2914 26.5624L86.873 27.4707ZM96.6826 42.7832H95.6826C95.6826 51.5375 88.5853 58.6348 79.8311 58.6348V59.6348V60.6348C89.6899 60.6348 97.6826 52.642 97.6826 42.7832H96.6826ZM79.8311 59.6348L79.8311 58.6348C73.5827 58.6346 68.1779 55.0183 65.5958 49.7604L64.6982 50.2012L63.8006 50.642C66.7058 56.5579 72.7907 60.6346 79.831 60.6348L79.8311 59.6348ZM64.6982 50.2012L63.9181 49.5756C60.4585 53.8904 55.1483 56.6514 49.1914 56.6514V57.6514V58.6514C55.7812 58.6514 61.656 55.5942 65.4784 50.8267L64.6982 50.2012ZM49.1914 57.6514V56.6514C43.1673 56.6514 37.8028 53.8293 34.3469 49.431L33.5605 50.0488L32.7742 50.6667C36.593 55.5268 42.5277 58.6514 49.1914 58.6514V57.6514ZM33.5605 50.0488L32.9212 49.2799C29.6514 51.999 25.452 53.6347 20.8672 53.6348L20.8672 54.6348L20.8672 55.6348C25.9368 55.6347 30.5848 53.824 34.1999 50.8177L33.5605 50.0488ZM20.8672 54.6348V53.6348C10.4471 53.6348 2 45.1876 2 34.7676H1H0C0 46.2922 9.34258 55.6348 20.8672 55.6348V54.6348ZM1 34.7676L2 34.7676C2.00005 24.7954 9.73726 16.6295 19.5353 15.9468L19.4658 14.9492L19.3963 13.9516C8.55752 14.7069 5.75185e-05 23.7374 0 34.7676L1 34.7676ZM19.4658 14.9492L20.4205 15.2467C22.8125 7.57049 29.9761 2 38.4375 2V1V0C29.0761 0 21.1561 6.1635 18.5111 14.6517L19.4658 14.9492Z" fill="#171717" mask="url(#path-1-outside-1_1222_20872)"/>
</svg>
