<svg width="1923" height="119" viewBox="0 0 1923 119" fill="none" xmlns="http://www.w3.org/2000/svg">
<path d="M1922.65 26.1265V0C1913.63 0 1907.76 2.74328 1902.27 6.00909C1902.14 6.13973 1901.88 6.27036 1901.75 6.27036C1900.7 6.79289 1899.79 7.44605 1898.87 7.96858C1898.74 8.09921 1898.48 8.22984 1898.35 8.22984C1892.47 11.7569 1886.33 15.0227 1876.67 15.0227C1855.76 15.0227 1851.58 0 1830.68 0C1826.11 0 1822.32 0.783794 1819.06 1.82885C1817.75 2.22075 1816.44 2.74328 1815.27 3.39644C1814.75 3.65771 1814.22 3.91897 1813.7 4.18024C1812.26 4.96403 1810.83 5.74783 1809.52 6.53162C1809.13 6.79289 1808.74 7.05415 1808.21 7.31542C1807.95 7.44605 1807.56 7.70732 1807.3 7.83795C1801.16 11.4957 1794.89 15.1534 1784.7 15.1534C1763.8 15.1534 1759.62 0.130633 1738.72 0.130633C1717.82 0.130633 1713.64 15.1534 1692.74 15.1534C1671.83 15.1534 1667.65 0.130633 1646.88 0.130633C1646.88 0.130633 1646.88 0.130633 1646.75 0.130633C1646.75 0.130633 1646.75 0.130633 1646.62 0.130633C1625.85 0.261265 1621.67 15.1534 1600.77 15.1534C1579.87 15.1534 1575.69 0.130633 1554.79 0.130633C1533.89 0.130633 1529.71 15.1534 1508.67 15.1534C1487.77 15.1534 1483.59 0.130633 1462.69 0.130633C1441.79 0.130633 1437.61 15.1534 1416.71 15.1534C1398.94 15.1534 1393.2 4.18024 1378.96 1.04506C1377.52 0.653163 1375.95 0.391897 1374.25 0.261265V0C1373.6 0 1373.08 0 1372.42 0C1371.9 0 1371.25 0 1370.6 0V0.130633C1370.07 0.130633 1369.55 0.261265 1368.9 0.261265C1368.24 0.261265 1367.85 0.391897 1367.33 0.522529C1365.24 0.914427 1363.41 1.43696 1361.71 2.09012C1361.32 2.22075 1360.8 2.35138 1360.41 2.61265C1349.83 6.92352 1343.55 15.0227 1328.14 15.0227C1307.24 15.0227 1303.06 0 1282.16 0C1261.26 0 1257.08 15.0227 1236.04 15.0227C1215.14 15.0227 1210.96 0 1190.06 0C1169.16 0 1164.98 15.0227 1144.08 15.0227C1123.18 15.0227 1119 0 1098.23 0C1098.23 0 1098.23 0 1098.1 0C1098.1 0 1098.1 0 1097.97 0C1077.2 0.130632 1073.02 15.0227 1052.11 15.0227C1031.21 15.0227 1027.03 0 1006.13 0C985.23 0 981.05 15.0227 960.018 15.0227C939.117 15.0227 934.937 0 914.035 0C893.134 0 888.954 15.0227 868.053 15.0227C847.805 15.0227 843.233 0.914427 823.899 0C823.638 0 823.246 0 822.984 0C822.723 0 822.331 0 822.07 0C802.737 0.914427 798.164 15.0227 777.916 15.0227C757.015 15.0227 752.835 0 731.934 0C711.033 0 706.852 15.0227 685.82 15.0227C664.919 15.0227 660.739 0 639.838 0C618.937 0 614.756 15.0227 593.855 15.0227C572.954 15.0227 568.774 0 548.003 0C548.003 0 548.003 0 547.873 0C547.742 0 547.873 0 547.742 0C526.971 0.130632 522.791 15.0227 501.89 15.0227C480.205 15.0227 476.025 0 455.123 0C434.222 0 430.042 15.0227 409.141 15.0227C388.24 15.0227 384.059 0 363.158 0C342.257 0 338.077 15.0227 317.176 15.0227C298.103 15.0227 293.009 2.61265 276.418 0.261265V0C275.504 0 274.589 4.96377e-07 273.806 0.130633C272.891 0.130633 272.107 0 271.193 0V0.391898C254.733 2.61265 249.508 15.1534 230.436 15.1534C209.534 15.1534 205.354 0.130633 184.453 0.130633C163.552 0.130633 159.372 15.1534 138.34 15.1534C117.439 15.1534 113.258 0.130633 92.3572 0.130633C71.456 0.130633 67.2757 15.1534 46.3745 15.1534C34.6176 15.1534 28.2166 10.4506 21.1625 6.27036C21.0318 6.13972 20.9012 6.13973 20.7706 6.00909C14.8921 2.74328 9.01364 0 0 0V26.1265H1922.65Z" fill="#302F2E"/>
<path d="M1922.65 118.406L1922.65 2.61328C1913.64 2.61328 1907.76 5.35656 1902.27 8.62238C1902.14 8.75301 1901.88 8.88364 1901.75 8.88364C1900.71 9.40617 1899.79 10.0593 1898.88 10.5819C1898.75 10.7125 1898.48 10.8431 1898.35 10.8431C1892.48 14.3702 1886.34 17.636 1876.67 17.636C1855.77 17.636 1851.59 2.61328 1830.69 2.61328C1826.11 2.61328 1822.33 3.39708 1819.06 4.44214C1817.75 4.83403 1816.45 5.35656 1815.27 6.00973C1814.75 6.27099 1814.23 6.53226 1813.7 6.79352C1812.27 7.57732 1810.83 8.36111 1809.52 9.14491C1809.13 9.40617 1808.74 9.66744 1808.22 9.9287C1807.96 10.0593 1807.56 10.3206 1807.3 10.4512C1801.16 14.1089 1794.89 17.7666 1784.7 17.7666C1763.8 17.7666 1759.62 2.74391 1738.72 2.74391C1717.82 2.74391 1713.64 17.7666 1692.74 17.7666C1671.84 17.7666 1667.66 2.74391 1646.89 2.74391C1646.89 2.74391 1646.89 2.74391 1646.76 2.74391C1646.76 2.74391 1646.76 2.74391 1646.63 2.74391C1625.85 2.87455 1621.67 17.7666 1600.77 17.7666C1579.87 17.7666 1575.69 2.74391 1554.79 2.74391C1533.89 2.74391 1529.71 17.7666 1508.68 17.7666C1487.78 17.7666 1483.6 2.74391 1462.69 2.74391C1441.79 2.74391 1437.61 17.7666 1416.71 17.7666C1398.95 17.7666 1393.2 6.79352 1378.96 3.65834C1377.52 3.26644 1375.95 3.00518 1374.26 2.87455V2.61328C1373.6 2.61328 1373.08 2.61328 1372.43 2.61328C1371.91 2.61328 1371.25 2.61328 1370.6 2.61328V2.74391C1370.08 2.74391 1369.55 2.87455 1368.9 2.87455C1368.25 2.87455 1367.86 3.00518 1367.33 3.13581C1365.24 3.52771 1363.41 4.05024 1361.72 4.7034C1361.32 4.83403 1360.8 4.96467 1360.41 5.22593C1349.83 9.5368 1343.56 17.636 1328.14 17.636C1307.24 17.636 1303.06 2.61328 1282.16 2.61328C1261.26 2.61328 1257.08 17.636 1236.05 17.636C1215.15 17.636 1210.97 2.61328 1190.06 2.61328C1169.16 2.61328 1164.98 17.636 1144.08 17.636C1123.18 17.636 1119 2.61328 1098.23 2.61328C1098.23 2.61328 1098.23 2.61328 1098.1 2.61328C1098.1 2.61328 1098.1 2.61328 1097.97 2.61328C1077.2 2.74391 1073.02 17.636 1052.12 17.636C1031.22 17.636 1027.04 2.61328 1006.13 2.61328C985.233 2.61328 981.053 17.636 960.021 17.636C939.12 17.636 934.94 2.61328 914.038 2.61328C893.137 2.61328 888.957 17.636 868.056 17.636C847.808 17.636 843.236 3.52771 823.902 2.61328C823.641 2.61328 823.249 2.61328 822.987 2.61328C822.726 2.61328 822.334 2.61328 822.073 2.61328C802.74 3.52771 798.167 17.636 777.919 17.636C757.018 17.636 752.838 2.61328 731.937 2.61328C711.036 2.61328 706.855 17.636 685.823 17.636C664.922 17.636 660.742 2.61328 639.841 2.61328C618.94 2.61328 614.759 17.636 593.858 17.636C572.957 17.636 568.777 2.61328 548.006 2.61328C548.006 2.61328 548.006 2.61328 547.876 2.61328C547.745 2.61328 547.876 2.61328 547.745 2.61328C526.974 2.74391 522.794 17.636 501.893 17.636C480.208 17.636 476.028 2.61328 455.126 2.61328C434.225 2.61328 430.045 17.636 409.144 17.636C388.243 17.636 384.062 2.61328 363.161 2.61328C342.26 2.61328 338.08 17.636 317.179 17.636C298.106 17.636 293.012 5.22593 276.421 2.87455V2.61328C275.507 2.61328 274.592 2.61328 273.809 2.74391C272.894 2.74391 272.11 2.61328 271.196 2.61328V3.00518C254.736 5.22593 249.511 17.7666 230.438 17.7666C209.537 17.7666 205.357 2.74391 184.456 2.74391C163.555 2.74391 159.374 17.7666 138.343 17.7666C117.441 17.7666 113.261 2.74391 92.3599 2.74391C71.4587 2.74391 67.2785 17.7666 46.3773 17.7666C34.6204 17.7666 28.2194 13.0639 21.1652 8.88364C21.0346 8.75301 20.9039 8.75301 20.7733 8.62238C14.8948 5.35656 9.01639 2.61328 0.00275037 2.61328L0 118.406H1922.65Z" fill="#B4EDD8"/>
</svg>
