<svg width="24" height="25" viewBox="0 0 24 25" fill="none" xmlns="http://www.w3.org/2000/svg">
<path d="M13.0035 16.9847L11.2035 21.8691C11.1502 22.0126 11.0543 22.1364 10.9286 22.2238C10.8029 22.3112 10.6534 22.3581 10.5003 22.3581C10.3472 22.3581 10.1978 22.3112 10.0721 22.2238C9.94642 22.1364 9.85049 22.0126 9.79721 21.8691L7.99721 16.9847C7.95923 16.8816 7.89932 16.788 7.82163 16.7103C7.74394 16.6326 7.65031 16.5727 7.54721 16.5347L2.66284 14.7347C2.51931 14.6814 2.39552 14.5855 2.3081 14.4598C2.22068 14.3341 2.17383 14.1847 2.17383 14.0316C2.17383 13.8785 2.22068 13.7291 2.3081 13.6034C2.39552 13.4777 2.51931 13.3817 2.66284 13.3285L7.54721 11.5285C7.65031 11.4905 7.74394 11.4306 7.82163 11.3529C7.89932 11.2752 7.95923 11.1816 7.99721 11.0785L9.79721 6.19409C9.85049 6.05056 9.94642 5.92677 10.0721 5.83935C10.1978 5.75193 10.3472 5.70508 10.5003 5.70508C10.6534 5.70508 10.8029 5.75193 10.9286 5.83935C11.0543 5.92677 11.1502 6.05056 11.2035 6.19409L13.0035 11.0785C13.0415 11.1816 13.1014 11.2752 13.1791 11.3529C13.2567 11.4306 13.3504 11.4905 13.4535 11.5285L18.3378 13.3285C18.4814 13.3817 18.6052 13.4777 18.6926 13.6034C18.78 13.7291 18.8269 13.8785 18.8269 14.0316C18.8269 14.1847 18.78 14.3341 18.6926 14.4598C18.6052 14.5855 18.4814 14.6814 18.3378 14.7347L13.4535 16.5347C13.3504 16.5727 13.2567 16.6326 13.1791 16.7103C13.1014 16.788 13.0415 16.8816 13.0035 16.9847Z" fill="#E87AF9" stroke="#171717" stroke-linecap="round" stroke-linejoin="round"/>
<path d="M16.5 2.03125V6.53125" stroke="#171717" stroke-linecap="round" stroke-linejoin="round"/>
<path d="M18.75 4.28125H14.25" stroke="#171717" stroke-linecap="round" stroke-linejoin="round"/>
<path d="M21 7.28125V10.2812" stroke="#171717" stroke-linecap="round" stroke-linejoin="round"/>
<path d="M22.5 8.78125H19.5" stroke="#171717" stroke-linecap="round" stroke-linejoin="round"/>
</svg>
