<svg width="44" height="44" viewBox="0 0 44 44" fill="none" xmlns="http://www.w3.org/2000/svg">
<circle cx="22" cy="22" r="21.45" fill="#E67EF6"/>
<circle cx="22" cy="22" r="21.45" fill="white" fill-opacity="0.7"/>
<circle cx="22" cy="22" r="21.45" fill="url(#paint0_linear_2123_33545)" fill-opacity="0.6" style="mix-blend-mode:overlay"/>
<circle cx="22" cy="22" r="21.45" stroke="#171717" stroke-width="1.1"/>
<circle cx="22.0026" cy="20.8337" r="4.66667" fill="#A3E635"/>
<path d="M19.6667 25.7334L16.4 28.0667L15 29.4667L15.9333 30.8667L19.6667 32.2667H25.2667L29 29.9334L28.5333 29.0001L24.3333 25.7334H19.6667Z" fill="white"/>
<path d="M22 10.625C19.7502 10.625 17.551 11.2921 15.6804 12.542C13.8098 13.7919 12.3518 15.5685 11.4909 17.647C10.6299 19.7255 10.4047 22.0126 10.8436 24.2192C11.2825 26.4257 12.3658 28.4525 13.9567 30.0433C15.5475 31.6342 17.5743 32.7175 19.7809 33.1564C21.9874 33.5953 24.2745 33.3701 26.353 32.5091C28.4315 31.6482 30.2081 30.1902 31.458 28.3196C32.7079 26.449 33.375 24.2498 33.375 22C33.3718 18.9841 32.1724 16.0927 30.0398 13.9602C27.9073 11.8276 25.0159 10.6282 22 10.625ZM16.1025 29.6016C16.7355 28.6116 17.6075 27.7969 18.6382 27.2326C19.6688 26.6682 20.825 26.3724 22 26.3724C23.175 26.3724 24.3312 26.6682 25.3618 27.2326C26.3925 27.7969 27.2645 28.6116 27.8975 29.6016C26.2113 30.913 24.1361 31.6249 22 31.6249C19.8639 31.6249 17.7887 30.913 16.1025 29.6016ZM18.5 21.125C18.5 20.4328 18.7053 19.7561 19.0899 19.1805C19.4744 18.6049 20.0211 18.1563 20.6606 17.8914C21.3002 17.6265 22.0039 17.5572 22.6828 17.6923C23.3618 17.8273 23.9854 18.1606 24.4749 18.6501C24.9644 19.1396 25.2977 19.7632 25.4328 20.4422C25.5678 21.1211 25.4985 21.8248 25.2336 22.4644C24.9687 23.1039 24.5201 23.6506 23.9445 24.0351C23.3689 24.4197 22.6922 24.625 22 24.625C21.0717 24.625 20.1815 24.2562 19.5251 23.5999C18.8688 22.9435 18.5 22.0533 18.5 21.125ZM29.1925 28.3886C28.2166 26.9745 26.8444 25.8804 25.2484 25.2441C26.1057 24.5688 26.7313 23.6432 27.0382 22.596C27.345 21.5487 27.3179 20.4319 26.9606 19.4008C26.6033 18.3696 25.9335 17.4755 25.0445 16.8426C24.1554 16.2098 23.0913 15.8697 22 15.8697C20.9087 15.8697 19.8446 16.2098 18.9555 16.8426C18.0665 17.4755 17.3967 18.3696 17.0394 19.4008C16.6821 20.4319 16.655 21.5487 16.9618 22.596C17.2687 23.6432 17.8943 24.5688 18.7516 25.2441C17.1556 25.8804 15.7834 26.9745 14.8075 28.3886C13.5744 27.0019 12.7684 25.2883 12.4866 23.4541C12.2048 21.62 12.4593 19.7435 13.2193 18.0506C13.9793 16.3577 15.2125 14.9206 16.7704 13.9123C18.3282 12.904 20.1443 12.3676 22 12.3676C23.8557 12.3676 25.6718 12.904 27.2297 13.9123C28.7875 14.9206 30.0207 16.3577 30.7807 18.0506C31.5407 19.7435 31.7952 21.62 31.5134 23.4541C31.2316 25.2883 30.4256 27.0019 29.1925 28.3886Z" fill="#171717"/>
<defs>
<linearGradient id="paint0_linear_2123_33545" x1="22" y1="0" x2="22" y2="44" gradientUnits="userSpaceOnUse">
<stop stop-opacity="0"/>
<stop offset="1"/>
</linearGradient>
</defs>
</svg>
