<svg width="44" height="44" viewBox="0 0 44 44" fill="none" xmlns="http://www.w3.org/2000/svg">
<circle cx="22" cy="22" r="21.45" fill="#4185F3"/>
<circle cx="22" cy="22" r="21.45" fill="white" fill-opacity="0.7"/>
<circle cx="22" cy="22" r="21.45" fill="url(#paint0_linear_2632_38609)" fill-opacity="0.6" style="mix-blend-mode:overlay"/>
<circle cx="22" cy="22" r="21.45" stroke="#171717" stroke-width="1.1"/>
<path d="M20.2973 32.0469H27.3529C28.0358 32.0469 28.5894 31.4924 28.5894 30.8084V23.7409H25.8114V23.3378C25.8114 22.5809 25.1988 21.9673 24.4431 21.9673C23.6875 21.9673 23.0749 22.5809 23.0749 23.3378V23.7409H20.2969H20.2973" fill="white"/>
<path d="M20.2973 32.0469H27.3529C28.0358 32.0469 28.5894 31.4924 28.5894 30.8084V23.7409H25.8114V23.3378C25.8114 22.5809 25.1988 21.9673 24.4431 21.9673C23.6875 21.9673 23.0749 22.5809 23.0749 23.3378V23.7409H20.2969H20.2973" stroke="#171717" stroke-width="1.2" stroke-miterlimit="10" stroke-linecap="round" stroke-linejoin="round"/>
<path d="M12 23.7409V30.8084C12 31.4924 12.5536 32.0469 13.2365 32.0469H20.2925V29.2644H20.695C21.4507 29.2644 22.0632 28.6508 22.0632 27.8939C22.0632 27.137 21.4507 26.5234 20.695 26.5234H20.2925V23.7409" fill="white"/>
<path d="M12 23.7409V30.8084C12 31.4924 12.5536 32.0469 13.2365 32.0469H20.2925V29.2644H20.695C21.4506 29.2644 22.0632 28.6508 22.0632 27.8939C22.0632 27.137 21.4506 26.5234 20.695 26.5234H20.2925V23.7409" stroke="#171717" stroke-width="1.2" stroke-miterlimit="10" stroke-linecap="round" stroke-linejoin="round"/>
<path d="M20.2921 23.7382V20.9557H19.8897C19.134 20.9557 18.5214 20.3421 18.5214 19.5852C18.5214 18.8283 19.134 18.2147 19.8897 18.2147H20.2921V15.4322H13.2365C12.5536 15.4322 12 15.9867 12 16.6707V23.7382H14.778V24.1413C14.778 24.8981 15.3906 25.5117 16.1463 25.5117C16.9019 25.5117 17.5146 24.8981 17.5146 24.1413V23.7382H20.2925H20.2921Z" fill="white" stroke="#171717" stroke-width="1.2" stroke-miterlimit="10" stroke-linecap="round" stroke-linejoin="round"/>
<path d="M32.0711 18.6869V13.2392C32.0711 12.5552 31.5175 12.0006 30.8345 12.0006H23.7785V14.7832H23.3761C22.6204 14.7832 22.0078 15.3968 22.0078 16.1536C22.0078 16.9105 22.6204 17.5242 23.3761 17.5242H23.7785V20.3066H26.5565V19.9063C26.5565 19.1494 27.1691 18.5358 27.9248 18.5358C28.6804 18.5358 29.2931 19.1494 29.2931 19.9063V20.3066H32.0711V18.3586" fill="#A3E635"/>
<path d="M32.0711 18.6869V13.2392C32.0711 12.5552 31.5175 12.0006 30.8345 12.0006H23.7785V14.7832H23.3761C22.6204 14.7832 22.0078 15.3968 22.0078 16.1536C22.0078 16.9105 22.6204 17.5242 23.3761 17.5242H23.7785V20.3066H26.5565V19.9063C26.5565 19.1494 27.1691 18.5358 27.9248 18.5358C28.6804 18.5358 29.2931 19.1494 29.2931 19.9063V20.3066H32.0711V18.3586" stroke="#171717" stroke-width="1.2" stroke-miterlimit="10" stroke-linecap="round" stroke-linejoin="round"/>
<defs>
<linearGradient id="paint0_linear_2632_38609" x1="22" y1="0" x2="22" y2="44" gradientUnits="userSpaceOnUse">
<stop stop-opacity="0"/>
<stop offset="1"/>
</linearGradient>
</defs>
</svg>
